<?xml version="1.0" encoding="UTF-8" standalone="no"?>
<svg
   xmlns:dc="http://purl.org/dc/elements/1.1/"
   xmlns:cc="http://creativecommons.org/ns#"
   xmlns:rdf="http://www.w3.org/1999/02/22-rdf-syntax-ns#"
   xmlns:svg="http://www.w3.org/2000/svg"
   xmlns="http://www.w3.org/2000/svg"
   xmlns:sodipodi="http://sodipodi.sourceforge.net/DTD/sodipodi-0.dtd"
   xmlns:inkscape="http://www.inkscape.org/namespaces/inkscape"
   width="256"
   height="256"
   viewBox="0 0 67.733332 67.733335"
   version="1.1"
   id="svg2991"
   inkscape:version="1.0beta1 (5c3063637d, 2019-10-15)"
   sodipodi:docname="option_share.svg">
  <defs
     id="defs2985" />
  <sodipodi:namedview
     id="base"
     pagecolor="#000000"
     bordercolor="#666666"
     borderopacity="1.0"
     inkscape:pageopacity="0"
     inkscape:pageshadow="2"
     inkscape:zoom="0.98994949"
     inkscape:cx="65.619982"
     inkscape:cy="138.23087"
     inkscape:document-units="mm"
     inkscape:current-layer="svg2991"
     inkscape:document-rotation="0"
     showgrid="false"
     units="px"
     inkscape:window-width="1918"
     inkscape:window-height="1048"
     inkscape:window-x="1920"
     inkscape:window-y="15"
     inkscape:window-maximized="1" />
  <metadata
     id="metadata2988">
    <rdf:RDF>
      <cc:Work
         rdf:about="">
        <dc:format>image/svg+xml</dc:format>
        <dc:type
           rdf:resource="http://purl.org/dc/dcmitype/StillImage" />
        <dc:title />
      </cc:Work>
    </rdf:RDF>
  </metadata>
  <path
     transform="scale(0.26458333)"
     d="M 128 0 C 92.544003 9.4739031e-15 64 28.544004 64 64 L 64 192 C 64 227.456 92.544003 256 128 256 C 163.456 256 192 227.456 192 192 L 192 64 C 192 28.544004 163.456 0 128 0 z M 128.0625 77.576172 C 141.69098 77.576172 152.58637 82.156461 160.74609 91.314453 C 168.90582 100.42904 172.98438 112.66861 172.98438 128.0332 C 172.98437 143.35439 168.90582 155.59396 160.74609 164.75195 C 152.58637 173.86654 141.69098 178.42383 128.0625 178.42383 C 114.39062 178.42383 103.45313 173.86654 95.25 164.75195 C 87.090272 155.63736 83.011719 143.3978 83.011719 128.0332 C 83.011719 112.66861 87.090272 100.42904 95.25 91.314453 C 103.45313 82.156461 114.39062 77.576172 128.0625 77.576172 z M 128.0625 88.253906 C 118.51388 88.253906 110.91971 91.813581 105.27734 98.931641 C 99.678382 106.0497 96.878906 115.75021 96.878906 128.0332 C 96.878906 140.27279 99.678382 149.9503 105.27734 157.06836 C 110.91971 164.18642 118.51388 167.74609 128.0625 167.74609 C 137.61112 167.74609 145.16319 164.18642 150.71875 157.06836 C 156.31771 149.9503 159.11719 140.27279 159.11719 128.0332 C 159.11719 115.75021 156.31771 106.0497 150.71875 98.931641 C 145.16319 91.813581 137.61112 88.253906 128.0625 88.253906 z "
     inkscape:label="O cut"
     style="fill:#ffffff;stroke-width:29.7441;stroke-linecap:round;stroke-linejoin:round;paint-order:stroke markers fill"
     id="rect4295" />
  <g
     inkscape:label="Ebene 1"
     id="layer1"
     inkscape:groupmode="layer">
    <path
       id="rect3611"
       style="display:inline;fill:#ffffff;stroke-width:29.7441;stroke-linecap:round;stroke-linejoin:round;paint-order:stroke markers fill"
       inkscape:label="S cut"
       d="M 128,0 C 92.544003,0 64,28.544004 64,64 v 128 c 0,35.456 28.544003,64 64,64 35.456,0 64,-28.544 64,-64 V 64 C 192,28.544004 163.456,0 128,0 Z m 11.34961,72.285156 c 3.84038,0 7.50744,0.114484 11.00391,0.34375 3.49646,0.229266 6.01878,0.460165 7.5664,0.689453 l 2.4082,0.34375 v 12.810547 h -20.97851 c -10.20281,0 -17.94148,1.23254 -23.21484,3.697266 -5.27337,2.407403 -7.91016,6.448451 -7.91016,12.123048 0,2.75132 0.6296,5.18583 1.89062,7.30664 1.31835,2.12081 3.03935,3.89905 5.16016,5.33203 2.17813,1.43298 4.67183,2.75138 7.48047,3.95508 2.86596,1.14638 5.84617,2.26445 8.94141,3.35351 3.09523,1.08907 6.18992,2.20518 9.28515,3.35157 3.09524,1.14638 6.04683,2.55063 8.85547,4.21289 2.86596,1.60493 5.35966,3.46903 7.48047,5.58984 2.17813,2.06349 3.89718,4.67167 5.1582,7.82422 1.31834,3.09523 1.97852,6.59058 1.97852,10.48828 0,7.62345 -1.6332,13.58583 -4.90039,17.88477 -3.20987,4.29893 -8.45485,7.39362 -15.73438,9.28515 -7.22221,1.89154 -17.3115,2.83789 -30.26562,2.83789 -4.01234,0 -7.85306,-0.11448 -11.52149,-0.34375 -3.668421,-0.22926 -6.333834,-0.46016 -7.996091,-0.68945 l -2.492187,-0.34375 v -12.81055 h 22.009768 c 13.35536,0 22.61276,-1.14668 27.77148,-3.43945 5.21604,-2.29276 7.82422,-6.41967 7.82422,-12.38086 0,-2.75132 -0.66018,-5.18583 -1.97851,-7.30664 -1.26103,-2.12081 -2.98008,-3.89905 -5.15821,-5.33203 -2.12081,-1.43298 -4.61451,-2.72276 -7.48047,-3.86914 -2.80863,-1.2037 -5.76023,-2.35039 -8.85547,-3.43945 -3.09523,-1.08907 -6.18992,-2.20518 -9.28515,-3.35157 -3.09524,-1.14638 -6.07545,-2.52201 -8.94141,-4.12695 -2.80864,-1.66225 -5.30234,-3.52636 -7.480467,-5.58984 -2.120809,-2.12081 -3.839863,-4.72899 -5.158203,-7.82422 -1.261022,-3.15256 -1.892578,-6.67652 -1.892578,-10.57422 0,-10.776001 3.926575,-18.457438 11.779298,-23.04297 7.91004,-4.64285 19.46082,-6.964844 34.65039,-6.964844 z"
       transform="scale(0.26458333)"
       inkscape:connector-curvature="0" />
    <g
       id="g3568"
       inkscape:label="raw"
       style="display:inline">
      <rect
         inkscape:label="shape"
         rx="16.933332"
         ry="16.933332"
         y="0"
         x="16.933334"
         height="67.73333"
         width="33.866665"
         id="rect3558"
         style="fill:#ffffff;stroke-width:7.86979;stroke-linecap:round;stroke-linejoin:round;paint-order:stroke markers fill" />
      <text
         inkscape:label="O"
         id="text3563"
         y="46.708267"
         x="33.866268"
         style="font-style:normal;font-weight:normal;font-size:35.2778px;line-height:1.25;font-family:sans-serif;text-align:center;letter-spacing:0px;word-spacing:0px;text-anchor:middle;inline-size:60.4834;display:inline;fill:#000000;fill-opacity:1;stroke:none;stroke-width:1.16473"
         xml:space="preserve"><tspan
           x="33.866268"
           y="46.708267"
           sodipodi:role="line"><tspan>O</tspan></tspan></text>
      <text
         xml:space="preserve"
         style="font-style:normal;font-weight:normal;font-size:46.589px;line-height:1.25;font-family:sans-serif;letter-spacing:0px;word-spacing:0px;inline-size:60.4834;display:inline;fill:#000000;fill-opacity:1;stroke:none;stroke-width:1.16473"
         x="3.4425499"
         y="48.425728"
         id="text3576"
         inkscape:label="S"><tspan
           x="3.4425499"
           y="48.425728"
           sodipodi:role="line"><tspan
             style="font-style:normal;font-variant:normal;font-weight:normal;font-stretch:normal;font-family:agave;-inkscape-font-specification:agave;text-align:center;text-anchor:middle;stroke-width:1.16473">S</tspan></tspan></text>
    </g>
  </g>
</svg>
