<?xml version="1.0" encoding="UTF-8" standalone="no"?>
<svg
   xmlns:dc="http://purl.org/dc/elements/1.1/"
   xmlns:cc="http://creativecommons.org/ns#"
   xmlns:rdf="http://www.w3.org/1999/02/22-rdf-syntax-ns#"
   xmlns:svg="http://www.w3.org/2000/svg"
   xmlns="http://www.w3.org/2000/svg"
   xmlns:sodipodi="http://sodipodi.sourceforge.net/DTD/sodipodi-0.dtd"
   xmlns:inkscape="http://www.inkscape.org/namespaces/inkscape"
   sodipodi:docname="touchpad.svg"
   inkscape:version="1.0beta1 (5c3063637d, 2019-10-15)"
   id="svg4322"
   version="1.1"
   viewBox="0 0 67.733332 67.733335"
   height="256"
   width="256">
  <defs
     id="defs4316" />
  <sodipodi:namedview
     inkscape:window-maximized="1"
     inkscape:window-y="15"
     inkscape:window-x="1920"
     inkscape:window-height="1048"
     inkscape:window-width="1918"
     units="px"
     showgrid="false"
     inkscape:document-rotation="0"
     inkscape:current-layer="layer1"
     inkscape:document-units="mm"
     inkscape:cy="159.76707"
     inkscape:cx="63.31541"
     inkscape:zoom="0.98151222"
     inkscape:pageshadow="2"
     inkscape:pageopacity="0"
     borderopacity="1.0"
     bordercolor="#666666"
     pagecolor="#000000"
     id="base" />
  <metadata
     id="metadata4319">
    <rdf:RDF>
      <cc:Work
         rdf:about="">
        <dc:format>image/svg+xml</dc:format>
        <dc:type
           rdf:resource="http://purl.org/dc/dcmitype/StillImage" />
        <dc:title></dc:title>
      </cc:Work>
    </rdf:RDF>
  </metadata>
  <g
     id="layer1"
     inkscape:groupmode="layer"
     inkscape:label="Ebene 1">
    <rect
       ry="14.816667"
       rx="16.933332"
       y="4.2333336"
       x="1.7801921e-06"
       height="59.266666"
       width="67.73333"
       id="rect4885"
       style="display:none;fill:#ffffff;stroke-width:6.00495;stroke-linecap:round;stroke-linejoin:round;paint-order:stroke markers fill" />
    <g
       style="display:none"
       id="g4989"
       transform="matrix(0.87500002,0,0,0.87500002,4.8656238,9.2844567)">
      <circle
         r="4.2333331"
         cy="28.093954"
         cx="8.0051651"
         id="circle4965"
         style="fill:#000000;stroke-width:3.22446;stroke-linecap:round;stroke-linejoin:round;paint-order:stroke markers fill" />
      <circle
         style="fill:#000000;stroke-width:3.22446;stroke-linecap:round;stroke-linejoin:round;paint-order:stroke markers fill"
         id="circle4967"
         cx="24.938498"
         cy="28.093954"
         r="4.2333331" />
      <circle
         r="4.2333331"
         cy="28.093954"
         cx="41.87183"
         id="circle4969"
         style="fill:#000000;stroke-width:3.22446;stroke-linecap:round;stroke-linejoin:round;paint-order:stroke markers fill" />
      <circle
         style="fill:#000000;stroke-width:3.22446;stroke-linecap:round;stroke-linejoin:round;paint-order:stroke markers fill"
         id="circle4971"
         cx="58.805164"
         cy="28.093954"
         r="4.2333331" />
      <circle
         style="fill:#000000;stroke-width:3.22446;stroke-linecap:round;stroke-linejoin:round;paint-order:stroke markers fill"
         id="circle4973"
         cx="8.0051651"
         cy="45.027287"
         r="4.2333331" />
      <circle
         r="4.2333331"
         cy="45.027287"
         cx="24.938498"
         id="circle4975"
         style="fill:#000000;stroke-width:3.22446;stroke-linecap:round;stroke-linejoin:round;paint-order:stroke markers fill" />
      <circle
         style="fill:#000000;stroke-width:3.22446;stroke-linecap:round;stroke-linejoin:round;paint-order:stroke markers fill"
         id="circle4977"
         cx="41.87183"
         cy="45.027287"
         r="4.2333331" />
      <circle
         r="4.2333331"
         cy="45.027287"
         cx="58.805164"
         id="circle4979"
         style="fill:#000000;stroke-width:3.22446;stroke-linecap:round;stroke-linejoin:round;paint-order:stroke markers fill" />
      <circle
         style="fill:#000000;stroke-width:3.22446;stroke-linecap:round;stroke-linejoin:round;paint-order:stroke markers fill"
         id="circle4981"
         cx="8.0051651"
         cy="11.160621"
         r="4.2333331" />
      <circle
         r="4.2333331"
         cy="11.160621"
         cx="24.938498"
         id="circle4983"
         style="fill:#000000;stroke-width:3.22446;stroke-linecap:round;stroke-linejoin:round;paint-order:stroke markers fill" />
      <circle
         style="fill:#000000;stroke-width:3.22446;stroke-linecap:round;stroke-linejoin:round;paint-order:stroke markers fill"
         id="circle4985"
         cx="41.87183"
         cy="11.160621"
         r="4.2333331" />
      <circle
         r="4.2333331"
         cy="11.160621"
         cx="58.805164"
         id="circle4987"
         style="fill:#000000;stroke-width:3.22446;stroke-linecap:round;stroke-linejoin:round;paint-order:stroke markers fill" />
    </g>
    <path
       inkscape:label="cut"
       inkscape:connector-curvature="0"
       transform="scale(0.26458333)"
       d="M 64,16 C 28.544003,16 0,40.976001 0,72 v 112 c 0,31.024 28.544003,56 64,56 h 128 c 35.456,0 64,-24.976 64,-56 V 72 C 256,40.976001 227.456,16 192,16 Z M 44.863281,58 a 14.000001,14.000001 0 0 1 14,14 14.000001,14.000001 0 0 1 -14,14 14.000001,14.000001 0 0 1 -14,-14 14.000001,14.000001 0 0 1 14,-14 z m 55.999999,0 a 14.000001,14.000001 0 0 1 14,14 14.000001,14.000001 0 0 1 -14,14 A 14.000001,14.000001 0 0 1 86.863281,72 14.000001,14.000001 0 0 1 100.86328,58 Z m 56,0 a 14.000001,14.000001 0 0 1 14,14 14.000001,14.000001 0 0 1 -14,14 14.000001,14.000001 0 0 1 -14,-14 14.000001,14.000001 0 0 1 14,-14 z m 56,0 a 14.000001,14.000001 0 0 1 14,14 14.000001,14.000001 0 0 1 -14,14 14.000001,14.000001 0 0 1 -14,-14 14.000001,14.000001 0 0 1 14,-14 z M 44.863281,114 a 14.000001,14.000001 0 0 1 14,14 14.000001,14.000001 0 0 1 -14,14 14.000001,14.000001 0 0 1 -14,-14 14.000001,14.000001 0 0 1 14,-14 z m 55.999999,0 a 14.000001,14.000001 0 0 1 14,14 14.000001,14.000001 0 0 1 -14,14 14.000001,14.000001 0 0 1 -13.999999,-14 14.000001,14.000001 0 0 1 13.999999,-14 z m 56,0 a 14.000001,14.000001 0 0 1 14,14 14.000001,14.000001 0 0 1 -14,14 14.000001,14.000001 0 0 1 -14,-14 14.000001,14.000001 0 0 1 14,-14 z m 56,0 a 14.000001,14.000001 0 0 1 14,14 14.000001,14.000001 0 0 1 -14,14 14.000001,14.000001 0 0 1 -14,-14 14.000001,14.000001 0 0 1 14,-14 z M 44.863281,170 a 14.000001,14.000001 0 0 1 14,14 14.000001,14.000001 0 0 1 -14,14 14.000001,14.000001 0 0 1 -14,-14 14.000001,14.000001 0 0 1 14,-14 z m 55.999999,0 a 14.000001,14.000001 0 0 1 14,14 14.000001,14.000001 0 0 1 -14,14 14.000001,14.000001 0 0 1 -13.999999,-14 14.000001,14.000001 0 0 1 13.999999,-14 z m 56,0 a 14.000001,14.000001 0 0 1 14,14 14.000001,14.000001 0 0 1 -14,14 14.000001,14.000001 0 0 1 -14,-14 14.000001,14.000001 0 0 1 14,-14 z m 56,0 a 14.000001,14.000001 0 0 1 14,14 14.000001,14.000001 0 0 1 -14,14 14.000001,14.000001 0 0 1 -14,-14 14.000001,14.000001 0 0 1 14,-14 z"
       style="display:inline;fill:#ffffff;stroke-width:22.6959;stroke-linecap:round;stroke-linejoin:round;paint-order:stroke markers fill"
       id="rect5049" />
  </g>
</svg>
