<?xml version="1.0" encoding="UTF-8" standalone="no"?>
<svg
   xmlns:dc="http://purl.org/dc/elements/1.1/"
   xmlns:cc="http://creativecommons.org/ns#"
   xmlns:rdf="http://www.w3.org/1999/02/22-rdf-syntax-ns#"
   xmlns:svg="http://www.w3.org/2000/svg"
   xmlns="http://www.w3.org/2000/svg"
   width="1024"
   height="1024"
   viewBox="0 0 270.93333 270.93334"
   version="1.1"
   id="svg8">
  <defs
     id="defs2">
    <clipPath
       clipPathUnits="userSpaceOnUse"
       id="clipPath964">
      <circle
         style="display:inline;fill:#ff9955;fill-opacity:1;stroke:none;stroke-width:8.46666622;stroke-miterlimit:4;stroke-dasharray:none;stroke-opacity:1"
         id="circle966"
         cx="-135.46669"
         cy="161.49431"
         r="135.46667"
         transform="scale(-1,1)" />
    </clipPath>
  </defs>
  <metadata
     id="metadata5">
    <rdf:RDF>
      <cc:Work
         rdf:about="">
        <dc:format>image/svg+xml</dc:format>
        <dc:type
           rdf:resource="http://purl.org/dc/dcmitype/StillImage" />
        <dc:title></dc:title>
      </cc:Work>
    </rdf:RDF>
  </metadata>
  <g
     id="layer1"
     transform="translate(0,-26.066633)"
     style="display:inline">
    <g
       style="display:none"
       transform="matrix(0.88085933,0,0,0.88085934,16.139583,19.245187)"
       id="g1027"
       clip-path="none">
      <path
         style="fill:#cfff0d;fill-opacity:1;stroke:none;stroke-width:28.1796608;stroke-miterlimit:4;stroke-dasharray:none;stroke-opacity:1"
         d="M 64.517578,61 C 62.568856,61 61,62.568856 61,64.517578 V 373.58008 h 261.16211 l 19.32422,-40.73438 33.47656,-70.5664 33.47852,70.5664 19.32226,40.73438 H 512 596.23633 l 19.32226,-40.73438 33.47852,-70.5664 33.47656,70.5664 19.32422,40.73438 H 963 V 64.517578 C 963,62.568856 961.43114,61 959.48242,61 Z M 61,650.41992 v 309.0625 C 61,961.43114 62.568856,963 64.517578,963 H 959.48242 C 961.43114,963 963,961.43114 963,959.48242 V 650.41992 H 575.55664 L 512,746.66211 448.44336,650.41992 Z"
         transform="matrix(0.30036957,0,0,0.30036956,-18.322543,7.7440809)"
         id="path1019" />
      <path
         id="path1021"
         d="M 94.304836,86.524958 84.249637,107.72108 78.44534,119.95599 H 0 v 83.15462 h 116.37636 l 19.0903,28.90779 19.09031,-28.90779 h 116.37636 v -83.15462 h -78.44534 l -5.8043,-12.23491 -10.0552,-21.196122 -10.05571,21.196122 -5.8043,12.23491 h -25.30182 -25.30181 l -5.8043,-12.23491 z"
         style="display:inline;fill:#162d50;stroke:none;stroke-width:0.26458332px;stroke-linecap:butt;stroke-linejoin:miter;stroke-opacity:1" />
      <path
         id="path1023"
         d="m 100.80626,150.68538 v 31.75 h 15.875 v -31.75 z m 53.44584,0 v 31.75 h 15.875 v -31.75 z"
         style="display:inline;fill:#ffaaee;fill-opacity:1;stroke:none;stroke-width:0.1879124;stroke-miterlimit:4;stroke-dasharray:none" />
      <path
         style="color:#000000;font-style:normal;font-variant:normal;font-weight:normal;font-stretch:normal;font-size:medium;line-height:normal;font-family:sans-serif;font-variant-ligatures:normal;font-variant-position:normal;font-variant-caps:normal;font-variant-numeric:normal;font-variant-alternates:normal;font-feature-settings:normal;text-indent:0;text-align:start;text-decoration:none;text-decoration-line:none;text-decoration-style:solid;text-decoration-color:#000000;letter-spacing:normal;word-spacing:normal;text-transform:none;writing-mode:lr-tb;direction:ltr;text-orientation:mixed;dominant-baseline:auto;baseline-shift:baseline;text-anchor:start;white-space:normal;shape-padding:0;clip-rule:nonzero;display:inline;overflow:visible;visibility:visible;opacity:1;isolation:auto;mix-blend-mode:normal;color-interpolation:sRGB;color-interpolation-filters:linearRGB;solid-color:#000000;solid-opacity:1;vector-effect:none;fill:#162d50;fill-opacity:1;fill-rule:nonzero;stroke:none;stroke-width:28.1875;stroke-linecap:butt;stroke-linejoin:miter;stroke-miterlimit:4;stroke-dasharray:none;stroke-dashoffset:0;stroke-opacity:1;color-rendering:auto;image-rendering:auto;shape-rendering:auto;text-rendering:auto;enable-background:accumulate"
         d="m 374.96289,146.52539 c -50.81479,0 -97.4156,18.32847 -133.56445,48.70899 l 18.00781,21.45898 c 31.21815,-26.2066 71.5066,-41.98047 115.55664,-41.98047 44.05104,0 84.3382,15.77477 115.55664,41.98242 l 18.00781,-21.46093 C 472.37833,164.85329 425.77821,146.52539 374.96289,146.52539 Z m 0,56.48633 c -36.98894,0 -70.92741,13.35745 -97.25781,35.49023 l 18.00781,21.46094 c 21.40007,-17.9602 49.02455,-28.76367 79.25,-28.76367 30.22545,0 57.85047,10.80347 79.25195,28.76367 l 18.00586,-21.46094 c -26.33176,-22.13257 -60.26906,-35.49023 -97.25781,-35.49023 z"
         transform="matrix(0.30036957,0,0,0.30036956,-18.322543,7.7440809)"
         id="path1025" />
    </g>
    <circle
       r="119.32709"
       cy="161.53329"
       cx="135.46667"
       id="circle1041"
       style="display:none;fill:#cfff0d;fill-opacity:1;stroke:none;stroke-width:7.45794201;stroke-miterlimit:4;stroke-dasharray:none;stroke-opacity:1" />
    <g
       clip-path="none"
       id="g929"
       transform="matrix(0.88085933,0,0,0.88085934,16.139583,19.245187)"
       style="display:inline">
      <path
         id="rect895"
         transform="matrix(0.30036957,0,0,0.30036956,-18.322543,7.7440809)"
         d="M 512,61 A 451.00001,451.00001 0 0 0 83.019531,373.58008 H 322.16211 l 19.32422,-40.73438 33.47656,-70.5664 33.47852,70.5664 19.32226,40.73438 H 512 596.23633 l 19.32226,-40.73438 33.47852,-70.5664 33.47656,70.5664 19.32422,40.73438 H 940.6582 A 451.00001,451.00001 0 0 0 512,61 Z M 83.341797,650.41992 A 451.00001,451.00001 0 0 0 512,963 451.00001,451.00001 0 0 0 940.98047,650.41992 H 575.55664 L 512,746.66211 448.44336,650.41992 Z"
         style="fill:#cfff0d;fill-opacity:1;stroke:none;stroke-width:28.1796608;stroke-miterlimit:4;stroke-dasharray:none;stroke-opacity:1" />
      <path
         id="path915"
         transform="matrix(0.30036957,0,0,0.30036956,-18.322543,7.7440809)"
         d="m 374.96289,262.2793 -33.47656,70.5664 -19.32422,40.73438 H 83.019531 A 451.00001,451.00001 0 0 0 61,512 451.00001,451.00001 0 0 0 83.341797,650.41992 H 448.44336 L 512,746.66211 575.55664,650.41992 H 940.98047 A 451.00001,451.00001 0 0 0 963,512 451.00001,451.00001 0 0 0 940.6582,373.58008 H 701.83789 l -19.32422,-40.73438 -33.47656,-70.5664 -33.47852,70.5664 -19.32226,40.73438 H 512 427.76367 L 408.44141,332.8457 Z"
         style="display:inline;fill:#162d50;stroke:none;stroke-width:0.88085926px;stroke-linecap:butt;stroke-linejoin:miter;stroke-opacity:1" />
      <path
         style="display:inline;fill:#ffaaee;fill-opacity:1;stroke:none;stroke-width:0.1879124;stroke-miterlimit:4;stroke-dasharray:none"
         d="m 100.80626,150.68538 v 31.75 h 15.875 v -31.75 z m 53.44584,0 v 31.75 h 15.875 v -31.75 z"
         id="rect917" />
      <path
         id="circle925"
         transform="matrix(0.30036957,0,0,0.30036956,-18.322543,7.7440809)"
         d="m 374.96289,146.52539 c -50.81479,0 -97.4156,18.32847 -133.56445,48.70899 l 18.00781,21.45898 c 31.21815,-26.2066 71.5066,-41.98047 115.55664,-41.98047 44.05104,0 84.3382,15.77477 115.55664,41.98242 l 18.00781,-21.46093 C 472.37833,164.85329 425.77821,146.52539 374.96289,146.52539 Z m 0,56.48633 c -36.98894,0 -70.92741,13.35745 -97.25781,35.49023 l 18.00781,21.46094 c 21.40007,-17.9602 49.02455,-28.76367 79.25,-28.76367 30.22545,0 57.85047,10.80347 79.25195,28.76367 l 18.00586,-21.46094 c -26.33176,-22.13257 -60.26906,-35.49023 -97.25781,-35.49023 z"
         style="color:#000000;font-style:normal;font-variant:normal;font-weight:normal;font-stretch:normal;font-size:medium;line-height:normal;font-family:sans-serif;font-variant-ligatures:normal;font-variant-position:normal;font-variant-caps:normal;font-variant-numeric:normal;font-variant-alternates:normal;font-feature-settings:normal;text-indent:0;text-align:start;text-decoration:none;text-decoration-line:none;text-decoration-style:solid;text-decoration-color:#000000;letter-spacing:normal;word-spacing:normal;text-transform:none;writing-mode:lr-tb;direction:ltr;text-orientation:mixed;dominant-baseline:auto;baseline-shift:baseline;text-anchor:start;white-space:normal;shape-padding:0;clip-rule:nonzero;display:inline;overflow:visible;visibility:visible;opacity:1;isolation:auto;mix-blend-mode:normal;color-interpolation:sRGB;color-interpolation-filters:linearRGB;solid-color:#000000;solid-opacity:1;vector-effect:none;fill:#162d50;fill-opacity:1;fill-rule:nonzero;stroke:none;stroke-width:28.1875;stroke-linecap:butt;stroke-linejoin:miter;stroke-miterlimit:4;stroke-dasharray:none;stroke-dashoffset:0;stroke-opacity:1;color-rendering:auto;image-rendering:auto;shape-rendering:auto;text-rendering:auto;enable-background:accumulate" />
    </g>
  </g>
</svg>
