<?xml version="1.0" encoding="iso-8859-1"?>
<!-- Generator: Adobe Illustrator 19.0.0, SVG Export Plug-In . SVG Version: 6.00 Build 0)  -->
<svg version="1.1" id="Capa_1" xmlns="http://www.w3.org/2000/svg" xmlns:xlink="http://www.w3.org/1999/xlink" x="0px" y="0px"
  viewBox="0 0 490 490" style="enable-background:new 0 0 490 490;" xml:space="preserve">
<g>
 <g>
  <path d="M251.2,193.5v-53.7c0-5.8,4.7-10.5,10.5-10.5h119.4c21,0,38.1-17.1,38.1-38.1s-17.1-38.1-38.1-38.1H129.5
   c-5.4,0-10.1,4.3-10.1,10.1c0,5.8,4.3,10.1,10.1,10.1h251.6c10.1,0,17.9,8.2,17.9,17.9c0,10.1-8.2,17.9-17.9,17.9H261.7
   c-16.7,0-30.3,13.6-30.3,30.3v53.3H0v244.2h490V193.5H251.2z M232.2,221.5h15.6c5.4,0,10.1,4.3,10.1,10.1s-4.3,10.1-10.1,10.1
   h-15.6c-5.4,0-10.1-4.3-10.1-10.1C222.1,225.8,226.7,221.5,232.2,221.5z M203.4,325.7h-15.6c-5.4,0-10.1-4.3-10.1-10.1
   c0-5.4,4.3-10.1,10.1-10.1h15.6c5.4,0,10.1,4.3,10.1,10.1C213.5,321,208.8,325.7,203.4,325.7z M213.5,352.9
   c0,5.4-4.3,10.1-10.1,10.1h-15.6c-5.4,0-10.1-4.3-10.1-10.1c0-5.4,4.3-10.1,10.1-10.1h15.6C208.8,342.8,213.5,347.5,213.5,352.9z
    M203.4,288h-15.6c-5.4,0-10.1-4.3-10.1-10.1c0-5.8,4.3-10.1,10.1-10.1h15.6c5.4,0,10.1,4.3,10.1,10.1
   C213.5,283.7,208.8,288,203.4,288z M186.3,221.5h15.6c5.4,0,10.1,4.3,10.1,10.1s-4.3,10.1-10.1,10.1h-15.6
   c-5.4,0-10.1-4.3-10.1-10.1S180.8,221.5,186.3,221.5z M140.4,221.5H156c5.4,0,10.1,4.3,10.1,10.1s-4.3,10.1-10.1,10.1h-15.6
   c-5.4,0-10.1-4.3-10.1-10.1C130.3,225.8,134.9,221.5,140.4,221.5z M138.8,268.1h15.6c5.4,0,10.1,4.3,10.1,10.1
   c0,5.8-4.3,10.1-10.1,10.1h-15.6c-5.4,0-10.1-4.3-10.1-10.1C128.7,272.4,133.4,268.1,138.8,268.1z M138.8,305.5h15.6
   c5.4,0,10.1,4.3,10.1,10.1c0,5.4-4.3,10.1-10.1,10.1h-15.6c-5.4,0-10.1-4.3-10.1-10.1C128.7,310.1,133.4,305.5,138.8,305.5z
    M138.8,342.8h15.6c5.4,0,10.1,4.3,10.1,10.1c0,5.4-4.3,10.1-10.1,10.1h-15.6c-5.4,0-10.1-4.3-10.1-10.1
   C128.7,347.5,133.4,342.8,138.8,342.8z M94.5,221.5h15.6c5.4,0,10.1,4.3,10.1,10.1s-4.3,10.1-10.1,10.1H94.5
   c-5.4,0-10.1-4.3-10.1-10.1S89.1,221.5,94.5,221.5z M89.4,268.1H105c5.4,0,10.1,4.3,10.1,10.1c0,5.8-4.3,10.1-10.1,10.1H89.4
   c-5.4,0-10.1-4.3-10.1-10.1C79.3,272.4,84,268.1,89.4,268.1z M89.4,305.5H105c5.4,0,10.1,4.3,10.1,10.1c0,5.4-4.3,10.1-10.1,10.1
   H89.4c-5.4,0-10.1-4.3-10.1-10.1C79.7,310.1,84,305.5,89.4,305.5z M89.4,342.8H105c5.4,0,10.1,4.3,10.1,10.1
   c0,5.4-4.3,10.1-10.1,10.1H89.4c-5.4,0-10.1-4.3-10.1-10.1C79.7,347.5,84,342.8,89.4,342.8z M56,400.4H40.4
   c-5.4,0-10.1-4.3-10.1-10.1c0-5.4,4.3-10.1,10.1-10.1H56c5.4,0,10.1,4.3,10.1,10.1C65.7,395.7,61.4,400.4,56,400.4z M56,363H40.4
   c-5.4,0-10.1-4.3-10.1-10.1c0-5.4,4.3-10.1,10.1-10.1H56c5.4,0,10.1,4.3,10.1,10.1C65.7,358.4,61.4,363,56,363z M56,325.7H40.4
   c-5.4,0-10.1-4.3-10.1-10.1c0-5.4,4.3-10.1,10.1-10.1H56c5.4,0,10.1,4.3,10.1,10.1C65.7,321,61.4,325.7,56,325.7z M56,288H40.4
   c-5.4,0-10.1-4.3-10.1-10.1c0-5.8,4.3-10.1,10.1-10.1H56c5.4,0,10.1,4.3,10.1,10.1C66.1,283.7,61.4,288,56,288z M56,241.3H40.4
   c-5.4,0-10.1-4.3-10.1-10.1s4.3-10.1,10.1-10.1H56c5.4,0,10.1,4.3,10.1,10.1S61.4,241.3,56,241.3z M252.8,400.4H89.4
   c-5.4,0-10.1-4.3-10.1-10.1c0-5.4,4.3-10.1,10.1-10.1h163.3c5.4,0,10.1,4.3,10.1,10.1C262.9,395.7,258.2,400.4,252.8,400.4z
    M252.8,363h-15.6c-5.4,0-10.1-4.3-10.1-10.1c0-5.4,4.3-10.1,10.1-10.1h15.6c5.4,0,10.1,4.3,10.1,10.1
   C262.9,358.4,258.2,363,252.8,363z M252.8,325.7h-15.6c-5.4,0-10.1-4.3-10.1-10.1c0-5.4,4.3-10.1,10.1-10.1h15.6
   c5.4,0,10.1,4.3,10.1,10.1C262.9,321,258.2,325.7,252.8,325.7z M252.8,288h-15.6c-5.4,0-10.1-4.3-10.1-10.1
   c0-5.8,4.3-10.1,10.1-10.1h15.6c5.4,0,10.1,4.3,10.1,10.1C262.9,283.7,258.2,288,252.8,288z M302.2,400.4h-15.6
   c-5.4,0-10.1-4.3-10.1-10.1c0-5.4,4.3-10.1,10.1-10.1h15.6c5.4,0,10.1,4.3,10.1,10.1C311.9,395.7,307.6,400.4,302.2,400.4z
    M302.2,363h-15.6c-5.4,0-10.1-4.3-10.1-10.1c0-5.4,4.3-10.1,10.1-10.1h15.6c5.4,0,10.1,4.3,10.1,10.1
   C311.9,358.4,307.6,363,302.2,363z M302.2,325.7h-15.6c-5.4,0-10.1-4.3-10.1-10.1c0-5.4,4.3-10.1,10.1-10.1h15.6
   c5.4,0,10.1,4.3,10.1,10.1C311.9,321,307.6,325.7,302.2,325.7z M302.2,288h-15.6c-5.4,0-10.1-4.3-10.1-10.1
   c0-5.8,4.3-10.1,10.1-10.1h15.6c5.4,0,10.1,4.3,10.1,10.1C312.3,283.7,307.6,288,302.2,288z M312.3,241.3h-15.6
   c-5.4,0-10.1-4.3-10.1-10.1s4.3-10.1,10.1-10.1h15.6c5.4,0,10.1,4.3,10.1,10.1S317.7,241.3,312.3,241.3z M351.2,400.4h-15.6
   c-5.4,0-10.1-4.3-10.1-10.1c0-5.4,4.3-10.1,10.1-10.1h15.6c5.4,0,10.1,4.3,10.1,10.1C361.3,395.7,356.6,400.4,351.2,400.4z
    M351.2,363h-15.6c-5.4,0-10.1-4.3-10.1-10.1c0-5.4,4.3-10.1,10.1-10.1h15.6c5.4,0,10.1,4.3,10.1,10.1
   C361.3,358.4,356.6,363,351.2,363z M351.2,325.7h-15.6c-5.4,0-10.1-4.3-10.1-10.1c0-5.4,4.3-10.1,10.1-10.1h15.6
   c5.4,0,10.1,4.3,10.1,10.1C361.3,321,356.6,325.7,351.2,325.7z M351.2,288h-15.6c-5.4,0-10.1-4.3-10.1-10.1
   c0-5.8,4.3-10.1,10.1-10.1h15.6c5.4,0,10.1,4.3,10.1,10.1C361.3,283.7,356.6,288,351.2,288z M357.8,241.3h-15.6
   c-5.4,0-10.1-4.3-10.1-10.1s4.3-10.1,10.1-10.1h15.6c5.4,0,10.1,4.3,10.1,10.1S363.6,241.3,357.8,241.3z M400.6,400.4H385
   c-5.4,0-10.1-4.3-10.1-10.1c0-5.4,4.3-10.1,10.1-10.1h15.6c5.4,0,10.1,4.3,10.1,10.1C410.3,395.7,406,400.4,400.6,400.4z
    M400.6,363H385c-5.4,0-10.1-4.3-10.1-10.1c0-5.4,4.3-10.1,10.1-10.1h15.6c5.4,0,10.1,4.3,10.1,10.1
   C410.3,358.4,406,363,400.6,363z M400.6,325.7H385c-5.4,0-10.1-4.3-10.1-10.1c0-5.4,4.3-10.1,10.1-10.1h15.6
   c5.4,0,10.1,4.3,10.1,10.1C410.3,321,406,325.7,400.6,325.7z M400.6,288H385c-5.4,0-10.1-4.3-10.1-10.1c0-5.8,4.3-10.1,10.1-10.1
   h15.6c5.4,0,10.1,4.3,10.1,10.1C410.7,283.7,406,288,400.6,288z M403.7,241.3h-15.6c-5.4,0-10.1-4.3-10.1-10.1s4.3-10.1,10.1-10.1
   h15.6c5.4,0,10.1,4.3,10.1,10.1C413.8,237,409.5,241.3,403.7,241.3z M449.6,400.4H434c-5.4,0-10.1-4.3-10.1-10.1
   c0-5.4,4.3-10.1,10.1-10.1h15.6c5.4,0,10.1,4.3,10.1,10.1C459.7,395.7,455,400.4,449.6,400.4z M449.6,363H434
   c-5.4,0-10.1-4.3-10.1-10.1c0-5.4,4.3-10.1,10.1-10.1h15.6c5.4,0,10.1,4.3,10.1,10.1C459.7,358.4,455,363,449.6,363z M449.6,325.7
   H434c-5.4,0-10.1-4.3-10.1-10.1c0-5.4,4.3-10.1,10.1-10.1h15.6c5.4,0,10.1,4.3,10.1,10.1C459.7,321,455,325.7,449.6,325.7z
    M449.6,288H434c-5.4,0-10.1-4.3-10.1-10.1c0-5.8,4.3-10.1,10.1-10.1h15.6c5.4,0,10.1,4.3,10.1,10.1
   C459.7,283.7,455,288,449.6,288z M449.6,241.3H434c-5.4,0-10.1-4.3-10.1-10.1s4.3-10.1,10.1-10.1h15.6c5.4,0,10.1,4.3,10.1,10.1
   S455,241.3,449.6,241.3z"/>
 </g>
</g>
<g>
</g>
<g>
</g>
<g>
</g>
<g>
</g>
<g>
</g>
<g>
</g>
<g>
</g>
<g>
</g>
<g>
</g>
<g>
</g>
<g>
</g>
<g>
</g>
<g>
</g>
<g>
</g>
<g>
</g>
</svg>

